<?xml version="1.0" standalone="no"?>
<!DOCTYPE svg PUBLIC "-//W3C//DTD SVG 20010904//EN"
 "http://www.w3.org/TR/2001/REC-SVG-20010904/DTD/svg10.dtd">
<svg version="1.0" xmlns="http://www.w3.org/2000/svg"
 width="377.000000pt" height="377.000000pt" viewBox="0 0 377.000000 377.000000"
 preserveAspectRatio="xMidYMid meet">

<g transform="translate(0.000000,377.000000) scale(0.100000,-0.100000)"
fill="#000000" stroke="none">
<path d="M1730 3694 c-283 -34 -531 -113 -743 -237 -507 -299 -834 -801 -896
-1379 -44 -404 58 -830 282 -1172 549 -838 1661 -1077 2496 -536 429 278 713
710 807 1225 25 140 25 450 0 590 -68 376 -227 689 -486 958 -269 281 -615
464 -1005 533 -86 15 -382 27 -455 18z m467 -323 c301 -66 541 -198 759 -415
218 -219 348 -457 417 -764 18 -82 21 -128 21 -302 0 -222 -12 -306 -69 -477
-128 -382 -424 -716 -786 -887 -225 -107 -381 -141 -649 -141 -215 0 -298 12
-463 66 -391 128 -727 422 -901 790 -107 225 -141 381 -141 649 0 215 12 298
66 463 76 233 194 423 373 603 239 238 506 375 841 430 119 20 413 11 532 -15z"/>
<path d="M1760 2864 c-14 -2 -56 -9 -95 -15 -153 -25 -285 -91 -378 -188 -179
-187 -179 -497 -1 -661 111 -101 279 -163 654 -241 107 -22 220 -49 250 -60
129 -45 185 -121 184 -248 -1 -153 -87 -249 -264 -292 -81 -20 -299 -17 -375
5 -128 38 -223 115 -271 220 -25 54 -47 186 -37 214 5 12 1 14 -18 9 -13 -3
-93 -15 -177 -28 l-154 -23 7 -45 c11 -75 53 -191 96 -263 127 -216 348 -323
689 -335 183 -6 294 9 428 60 109 41 184 91 259 170 179 193 189 476 22 652
-104 110 -217 160 -546 240 -363 89 -450 121 -516 194 -49 54 -64 107 -49 171
22 93 77 152 187 201 68 30 231 38 328 15 192 -45 320 -169 334 -325 6 -61 6
-61 37 -60 17 0 89 8 161 17 151 20 148 17 115 125 -33 111 -77 184 -160 268
-107 108 -222 168 -395 205 -70 15 -268 26 -315 18z"/>
</g>
</svg>
